<svg xmlns="http://www.w3.org/2000/svg" xmlns:xlink="http://www.w3.org/1999/xlink" viewBox="0 0 855.332 676.006" xmlns:v="https://vecta.io/nano"><style><![CDATA[.B{fill:#3f3d56}.C{fill:#6c63ff}.D{opacity:.1}.E{fill:#ffb9b9}.F{fill:#d0cde1}.G{fill:#2f2e41}]]></style><path d="M342.776 675.006s51.417-137.111 23.072-221.486-50.757-81.08-50.757-81.08-38.233-9.888-85.694 19.116-59.986 37.574-87.013 25.709-32.3-30.323-98.218-28.345c0 0 34.936-19.117 69.214-1.978s57.349 26.367 92.286 0 83.057-60.645 129.859-40.21c0 0-34.277-33.619-45.483-33.619s-63.941-5.273-81.08-23.071c0 0-24.39-17.139-67.896 25.049s-32.96 42.188-71.851 38.892S0 331.57 0 331.57s45.484 18.458 73.17 9.229 51.416-44.165 75.806-56.031 38.892-27.686 71.851-10.547c0 0-13.843-56.69-40.21-52.075s-84.376.659-123.268-26.368c0 0-30.982-.659-44.824 5.933 0 0 36.255-21.094 67.237-5.933s113.379 13.184 113.379 13.184-7.251-96.241-21.094-102.833-5.273-23.731-30.981-27.027c0 0 31.641-3.955 37.573 17.798s46.802 139.089 46.802 139.089 25.05 50.098 52.735 38.232-10.547-78.443-10.547-78.443l-47.461-21.753s35.596-1.318 57.349 19.117 23.072 86.353 23.072 86.353 54.712 7.91 67.896 37.573c0 0 8.569-26.367-7.911-42.188-4.119-3.955-8.445-10.835-12.617-18.931a167.22 167.22 0 0 1-9.927-23.916 167.21 167.21 0 0 1-6.116-25.163 167.23 167.23 0 0 1-2.156-25.806 167.14 167.14 0 0 1 1.854-25.829c2.455-16.865 3.967-33.355 1.277-37.241-5.933-8.569-30.982-61.304-32.96-75.147S301.907 0 301.907 0s.659 35.596 8.569 46.802 30.323 66.578 30.323 66.578 11.865-24.39 25.708-30.322 34.937-42.188 27.027-59.986c0 0 9.888 27.686 1.977 43.506s-30.322 34.278-30.322 34.278-24.39 82.398-5.933 116.675 54.053 72.511 52.076 97.56v14.502s39.551-37.574 36.914-50.098-5.933-42.188-30.982-59.986-41.528-46.143-23.73-87.012 17.798-48.121 17.798-48.121l-11.866 50.757s-6.591 45.484 11.866 61.304 42.847 44.825 42.847 44.825l-5.274-94.923s-1.318-77.784 74.488-111.402l48.121-20.435-49.439 30.982s-59.327 52.735-55.372 85.035-.659 53.394-.659 53.394 36.915-47.461 80.421-63.282 70.533-71.192 70.533-71.192l36.914-29.004-30.323 36.255s-9.228 42.847-61.304 73.17-85.694 75.147-87.671 102.833l-3.956 52.075s97.56-3.296 119.313-46.143S613.702 110.743 634.796 96.9s60.645-30.981 60.645-30.981l-44.166 36.255s-9.228 29.663-7.251 50.757-14.502 40.87-14.502 40.87 45.484-15.821 70.533-46.143 54.053-58.009 54.053-58.009-34.937 52.076-34.937 54.054-21.094 22.412-18.457 34.936-40.21 27.027-40.21 27.027l-43.506 25.049-13.843 31.641s56.69 1.318 86.353 34.937S793 340.799 793 340.799l-41.529 11.206s-39.551-13.184-77.124-37.573-33.619-46.143-80.421-21.754-110.743 44.825-110.743 44.825 36.914-17.139 103.492 24.39 137.77 13.843 137.77 13.843-15.821 30.322-49.439 32.3-121.29-53.394-150.954-37.574-43.506-3.955-55.371 35.596-33.619 147.658-8.57 208.303l25.049 60.645z" class="B"/><path d="M590.971 238.625c-17.673 34.811-85.382 43.515-110.16 45.556l-1.153 14.587s97.56-3.296 119.313-46.143 23.731-127.882 44.825-141.725c2.237-1.468 4.683-2.973 7.266-4.491l1.213-4.235 44.166-36.255S656.89 83.058 635.796 96.9s-23.072 98.878-44.825 141.725zm59.806-53.628l-2.315 6.076-2.829 5.854-3.321 5.59-3.79 5.284s39.605-13.779 65.254-40.26c4.984-10.937 16.395-22.383 16.395-23.838 0-1.978 34.937-54.054 34.937-54.054s-29.004 27.686-54.053 58.009c-14.196 17.185-34.954 29.71-50.278 37.339zm-238.445 11.44l-1.315-1.227c1.981 6.073 4.945 11.482 9.315 15.227 18.457 15.821 42.847 44.825 42.847 44.825l-5.274-94.923s-.869-51.724 39.917-89.044a312.17 312.17 0 0 1 6.035-6.72l6.224-6.545 6.407-6.366 6.587-6.18 49.439-30.982-48.121 20.435c-75.806 33.618-74.488 111.402-74.488 111.402l5.274 94.923s-24.39-29.004-42.847-44.825zm64.963-24.407c-.144 16.23-2.251 25.883-2.251 25.883s36.899-47.441 80.393-63.272c2.571-1.626 5.179-3.227 7.848-4.781 52.076-30.323 61.304-73.17 61.304-73.17l30.323-36.255-36.914 29.004s-27.027 55.372-70.533 71.192c-29.656 10.784-56.244 36.265-70.17 51.399zm-56.963 157.061v14.502s39.551-37.574 36.914-50.098c-2.016-9.579-4.431-29.177-16.653-45.83 5.509 12.585 7.186 24.861 8.653 31.83 1.891 8.981-17.911 30.842-29.268 42.493.1.585.182 1.174.247 1.765s.111 1.182.141 1.776.041 1.187.036 1.781a30.25 30.25 0 0 1-.07 1.781zm-53.054-99.521l.978 1.961c10.108 18.773 25.348 38.728 36.75 57.058-9.215-18.152-25.252-38.91-37.728-59.019zm220.397 132.323c-21.684-13.526-40.219-20.825-55.36-24.523-15.882 5.978-28.954 10.435-35.531 12.624 11.796-3.054 45.972-7.11 98.891 25.899 41.52 25.899 84.833 24.878 111.556 20.441a68.74 68.74 0 0 0 5.306-4.437c1.694-1.567 3.308-3.218 4.836-4.946a69.19 69.19 0 0 0 4.317-5.405c1.348-1.873 2.601-3.812 3.755-5.81 0 0-71.192 27.686-137.77-13.843zM399.414 201.506c-5.315-13.024-6.191-28.522-.084-46.683a142.37 142.37 0 0 1 .028-4.934 142.25 142.25 0 0 1 .199-4.931 142.02 142.02 0 0 1 .37-4.92c.151-1.638.331-3.273.539-4.905l10.38-44.401c-1.914 6.403-6.292 18.756-16.312 41.764-12.685 29.129-7.951 51.89 4.88 69.01z" class="D"/><path d="M690.508 297.293c-20.572-23.315-54.136-31.093-72.782-33.672l-5.571 12.735s56.69 1.318 86.353 34.937c16.45 18.643 46.477 29.985 69.968 36.393L794 340.799s-73.829-9.888-103.492-43.506zm-403.332-9.072c27.686-11.865-10.547-78.443-10.547-78.443l-1.046-.479c9.532 20.11 23.356 56.453 3.593 64.922-18.492 7.926-35.806-11.792-45.267-25.762l.532 1.53s25.049 50.098 52.735 38.232zm90.309 42.847s8.342-25.714-7.33-41.591c3.843 13.677-.67 27.591-.67 27.591-10.199-22.946-45.243-32.874-60.592-36.194.595 7.64.696 12.621.696 12.621s54.712 7.91 67.896 37.573zm33.361-240.336c1.485-4.97 1.486-6.356 1.486-6.356zM81.77 354.925l.4-.126c27.685-9.229 51.416-44.165 75.806-56.031s38.892-27.685 71.851-10.547c0 0-5.766-23.602-16.94-39.109.925 2.023 1.806 4.065 2.642 6.126a154.22 154.22 0 0 1 2.373 6.235 154.35 154.35 0 0 1 2.101 6.332c.654 2.125 1.262 4.264 1.824 6.416-32.959-17.138-47.461-1.318-71.851 10.547s-48.121 46.802-75.806 56.031S1 331.57 1 331.57s30.323 19.117 69.215 22.413l11.555.942zM58.349 195.778l3.88 2.573 3.973 2.427 4.059 2.279 4.142 2.127 3.703.761 3.64 1.023 3.558 1.28 3.457 1.53c19.932 9.754 61.141 12.414 88.003 13.071 1.711-.206 3.34-.439 4.853-.703a17.16 17.16 0 0 1 2.338-.253c.784-.031 1.57-.009 2.351.067s1.556.205 2.32.386a17.31 17.31 0 0 1 2.246.697l11.269-.081s-7.251-96.241-21.094-102.833c-.104-.05-.196-.106-.298-.157 8.818 28.288 13.392 88.99 13.392 88.99s-82.398 1.977-113.38-13.184-67.236 5.933-67.236 5.933c13.843-6.592 44.824-5.933 44.824-5.933zm298.243 479.228c12.078-37.026 41.125-139.411 18.256-207.486-9.876-29.399-19.03-48.146-26.769-60.106 5.787 11.322 12.115 26.297 18.769 46.106 28.345 84.375-23.072 221.486-23.072 221.486zM99.162 394.222l6.008.885 5.905 1.424 5.752 1.95 5.553 2.461c27.071 13.536 47.157 22.12 71.614 12.15 5.572-2.943 11.804-6.585 18.99-10.921l1.682-1.229c34.937-26.367 83.057-60.645 129.859-40.21 0 0-9.458-9.275-20.062-18.081-42.897-10.524-85.857 20.185-117.797 44.291-34.937 26.367-58.008 17.139-92.286 0s-69.214 1.978-69.214 1.978c25.469-.765 41.88 1.523 53.996 5.302zM166.071 99.73l.593.929.652.89.706.847.76.799-.603-.922-.654-.887-.704-.849-.75-.807zm120.446 107.412l.752.734.727.759.703.783.676.805c-2.888-6.942-6.454-12.944-10.858-17.081-21.753-20.435-57.349-19.117-57.349-19.117l44.641 20.461a63.44 63.44 0 0 1 5.609 2.404c1.83.89 3.616 1.868 5.353 2.929a63.6 63.6 0 0 1 5.048 3.428c1.628 1.222 3.195 2.522 4.698 3.895zm47.372-89.148c2.69 3.886 1.178 20.376-1.277 37.241a167.14 167.14 0 0 0-1.854 25.829c.05 8.645.771 17.273 2.156 25.806a167.21 167.21 0 0 0 6.116 25.163 167.28 167.28 0 0 0 9.927 23.917l1.621 3.091 1.712 3.042a116.03 116.03 0 0 0 1.801 2.989l1.89 2.935a167.53 167.53 0 0 1-9.447-23.527c-2.549-8.07-4.483-16.322-5.784-24.685a167.49 167.49 0 0 1-1.99-25.274 167.33 167.33 0 0 1 1.852-25.286c2.455-16.865 3.967-33.355 1.277-37.241-5.933-8.569-30.982-61.304-32.96-75.147-.148-1.342-.268-2.686-.359-4.033s-.154-2.696-.189-4.046a97.59 97.59 0 0 1-.018-4.049c.023-1.35.074-2.699.153-4.047C303.396 26.144 302.907 0 302.907 0s-3.955 29.004-1.978 42.847 27.027 66.578 32.96 75.147zm15.91 9.386s6.387-13.117 15.252-22.452l1.138-4.072s22.412-18.458 30.322-34.278c6.123-12.246 1.584-31.593-.781-39.714 3.927 18.706-15.302 50.656-28.223 56.193-11.205 4.803-21.111 21.693-24.481 27.958l6.773 16.365z" class="D"/><path d="M395.73 26.864l-.223-.97-.275-.958-.324-.941-.374-.923 1.196 3.792zM162.903 93.253c5.81.711 12.492 2.494 17.59 6.628l-.854-2.98c-5.932-21.754-37.573-17.798-37.573-17.798 14.299 1.833 17.992 7.949 20.837 14.15z" class="D"/><g transform="translate(540.332 358.006)"><g transform="translate(0 221)" class="C"><path d="M0 0h98v19H0z"/></g><g transform="translate(41)" class="B"><path d="M761.666 711.003c-1.05-.001-2.09-.209-3.06-.612a7.99 7.99 0 0 1-2.594-1.734 8.02 8.02 0 0 1-1.735-2.594c-.402-.97-.61-2.01-.611-3.06v-225c0-1.513.429-2.995 1.237-4.273s1.962-2.303 3.328-2.952 2.889-.899 4.391-.718 2.922.784 4.095 1.739l-1.264 1.551a5.99 5.99 0 0 0-3.071-1.304 6 6 0 0 0-3.293.538c-1.024.487-1.89 1.255-2.496 2.214a6 6 0 0 0-.927 3.205v225c.001.788.157 1.567.458 2.295s.744 1.389 1.301 1.946a5.99 5.99 0 0 0 1.946 1.3c.727.302 1.507.458 2.295.459z" transform="translate(-753.666 -470.003)"/></g><g transform="translate(52.787 1.796)" class="B"><path d="M769.666 696.85h-2V478.003c.001-.445-.048-.888-.146-1.321s-.243-.855-.434-1.256a5.9 5.9 0 0 0-.7-1.13c-.275-.349-.588-.667-.933-.946l1.264-1.551c.46.373.877.796 1.243 1.262s.679.971.934 1.506a8 8 0 0 1 .578 1.675 7.96 7.96 0 0 1 .194 1.761z" transform="translate(-765.453 -471.799)"/></g><g transform="translate(13.451 99.104)"><g transform="translate(-726.117 -569.106)"><path d="M791.096 642.007s11.312-11.867 15.941-9.479-13.312 12.999-13.312 12.999z" class="D"/><path d="M756.582 616.106s-4.158 7.454-3.07 15.488 11.039 33.818 14.422 33.36 28.443-18.925 28.443-18.925l-4.779-6.673-18.307 11.092s-2.789-39.672-16.709-34.342z" class="D"/><path d="M791.096 642.007s11.312-11.867 15.941-9.479-13.312 12.999-13.312 12.999z" class="E"/><path d="M756.582 616.106s-4.158 7.454-3.07 15.488 11.039 33.818 14.422 33.36 28.443-18.925 28.443-18.925l-4.779-6.673-18.307 11.092s-2.789-39.672-16.709-34.342z" class="F"/></g><g transform="translate(60.732 51.015)"><path d="M824.464 634.251l-28.54 15.676a1.36 1.36 0 0 1-1.137.171c-.19-.056-.366-.153-.515-.285a1.35 1.35 0 0 1-.346-.476l-6.991-14.613c-.066-.207-.095-.424-.084-.64s.059-.43.144-.629.205-.382.355-.54a1.83 1.83 0 0 1 .52-.382l23.694-12.213a1.4 1.4 0 0 1 .471-.177 1.39 1.39 0 0 1 .502.004 1.36 1.36 0 0 1 .468.182c.144.089.27.203.372.337l11.836 11.151a1.75 1.75 0 0 1 .215.674 1.76 1.76 0 0 1-.068.703c-.07.228-.186.439-.34.621s-.343.329-.556.436z" transform="translate(-786.849 -620.122)" class="G"/><path d="M650.225 520.094l-26.755 15.293-7.12-12.832 22.952-12.482 10.923 10.021z" transform="translate(-614.515 -508.125)" class="C"/><ellipse rx=".394" ry=".336" fill="#f2f2f2" transform="matrix(.640666 -.76782 .76782 .640666 13.003696 7.333854)"/></g><g><g><g transform="matrix(.992814 .119664 -.119664 .992814 -639.369384 -659.464299)"><path d="M809.053 677.134s13.229 1.707 12.802 9.816-10.242 41.82-10.242 41.82l-.853 13.229s.853 22.191-1.707 21.764-8.535-15.789-8.535-15.789-7.255-4.694-3.841-8.962 5.974-3.84 5.121-8.535-.427-24.324 2.134-30.298l4.052-9.27-8.32-.545z" class="E"/><path d="M809.053 677.134s13.229 1.707 12.802 9.816-10.242 41.82-10.242 41.82l-.853 13.229s.853 22.191-1.707 21.764-8.535-15.789-8.535-15.789-7.255-4.694-3.841-8.962 5.974-3.84 5.121-8.535-.427-24.324 2.134-30.298l4.052-9.27-8.32-.545z" class="D"/></g></g></g><g class="E"><g><g transform="matrix(.984708 .174215 -.174215 .984708 74.8277 110.161)"><path d="M809.906 679.268s12.802 2.987 14.083 11.522 7.681 33.713 7.681 33.713l6.828 15.79s10.669 19.203 5.974 18.776-11.095-9.815-13.229-9.815-8.535-2.56-8.108-4.267 3.414-6.828 3.414-6.828l-10.324-17.985-1.403-2.649a43.19 43.19 0 0 1-1.217-2.739 43.21 43.21 0 0 1-1.027-2.815l-.832-2.88c-1.06-4.212-2.267-9.372-2.267-11.046 0-2.987-8.535-4.268-8.535-4.268z" transform="translate(-800.944 -679.268)"/></g></g></g><g transform="translate(-726.117 -569.107)"><path d="M768.085 651.956l5.975 17.07s9.388 2.561 16.216 4.694 19.63-.853 20.91 4.268-2.56 14.082-6.401 16.216-5.974 4.268-18.35.854-41.821-4.268-41.821-4.268c-.71.427-1.445.811-2.2 1.152a21.62 21.62 0 0 1-2.32.89c-.789.251-1.593.456-2.406.614a21.28 21.28 0 0 1-2.462.331c-5.548.427-6.828.854-8.535-.426s.853-1.281 1.707-4.695 1.28-2.133 5.121-5.974 6.828-15.363 8.962-19.203 3.414-11.523 3.414-11.523z" class="G"/><path d="M767.232 601.174a12.48 12.48 0 0 0-2.102 1.941 12.46 12.46 0 0 0-1.605 2.368c-.443.849-.786 1.745-1.024 2.672s-.369 1.877-.39 2.834c0 6.401-12.803-6.828-12.803-6.828s6.828-8.535 6.828-11.095 11.096 8.108 11.096 8.108z" class="E"/><path d="M751.015 598.613s7.682 2.988 9.389 7.255 8.108 13.229 8.108 13.229 8.962 9.389 5.974 19.63-5.547 12.803-5.547 14.51-4.268 4.694-7.682 4.267-16.216-2.134-17.07-3.841-5.974-26.031-2.56-34.993l2.145-5.106 2.281-5.048 2.415-4.984 2.547-4.919z" class="F"/><path d="M769.968 591.495c2.769.657 5.487-1.107 7.756-2.856 1.288-.994 2.707-2.41 2.312-4.009-.35-1.419-2.021-2.223-2.265-3.664-.169-1.002.417-1.976.464-2.992a4.19 4.19 0 0 0-.218-1.13 4.23 4.23 0 0 0-.516-1.03c-.218-.318-.478-.605-.774-.852a4.26 4.26 0 0 0-.976-.612c-1.349-.726-2.88-1.029-4.266-1.679-2.116-.993-3.876-2.783-6.136-3.357-3.089-.783-6.233.885-9.409 1.101-1.921.131-3.867-.275-5.768.041a8.23 8.23 0 0 0-2.554.98 8.21 8.21 0 0 0-2.092 1.762c-.594.701-1.067 1.495-1.399 2.351s-.519 1.762-.552 2.68c-.025 1.358.247 2.873-.564 3.951l-.248.27-.264.255-.28.237-.294.221c-2.823 2.283-4.105 6.098-4.251 9.774-.072 1.809.307 3.957 1.912 4.726a6.74 6.74 0 0 0 .652.189c.221.053.443.095.668.126s.45.051.676.061a7.32 7.32 0 0 0 .679-.004c.227-.01.455.009.677.054a2.83 2.83 0 0 1 .645.216c.205.098.397.221.572.365s.333.31.468.493c.731 1.289-.364 3.194.592 4.32.719.845 2.12.564 2.959-.156s1.362-1.756 2.157-2.527c1.547-1.498 3.841-1.769 5.961-1.997a3.03 3.03 0 0 0 .466-.04c.153-.025.305-.062.453-.111a2.9 2.9 0 0 0 .431-.179c.139-.071.273-.152.399-.244a2.68 2.68 0 0 0 .472-.679 2.72 2.72 0 0 0 .153-.386c.041-.133.072-.268.092-.405a9.17 9.17 0 0 0 .158-.959 9.28 9.28 0 0 0 .054-.971c.001-.324-.015-.648-.049-.971a9.17 9.17 0 0 0-.152-.96 2.07 2.07 0 0 1-.079-.3c-.019-.101-.031-.204-.035-.308a2.28 2.28 0 0 1 .01-.309c.011-.103.029-.205.055-.305a1.62 1.62 0 0 1 .119-.206c.044-.066.093-.129.145-.188s.11-.115.171-.166a1.54 1.54 0 0 1 .191-.141c1.314-.987 3.616-2.425 5.324-2.153 1.895.302 3.386 2.22 5.298 2.673z" class="G"/><path d="M752.722 613.976s-5.121 6.828-5.121 14.936 6.402 34.993 9.816 34.993 30.725-14.936 30.725-14.936l-3.841-7.254-19.63 8.534s2.561-39.687-11.949-36.273z" class="F"/><path d="M783.448 644.275s12.802-10.242 17.07-7.255-14.936 11.096-14.936 11.096z" class="E"/></g><ellipse rx="1" ry="3" transform="matrix(.779685 -.626173 .626173 .779685 18.549022 13.895423)" class="C"/><circle r="12.376" cx="40.261" cy="21.826" class="E"/></g><ellipse rx=".263" ry=".224" fill="#f2f2f2" transform="matrix(.640666 -.76782 .76782 .640666 97.121777 170.581637)"/></g><path d="M49.332 674.006h806v2h-806z" class="B"/><g transform="translate(481.055 620.794)" class="B"><path d="M660.864 753.135c-9.831 15.076-7.137 34.251-7.137 34.251s18.633-5.268 28.464-20.344 7.137-34.252 7.137-34.252-18.633 5.269-28.464 20.345z" transform="translate(-653.39 -732.79)"/></g><g transform="translate(470.442 610.696)" class="C"><path d="M668.249 755.8c-.777 17.982-14.125 32.009-14.125 32.009s-12.088-15.126-11.311-33.108 14.125-32.009 14.125-32.009 12.088 15.127 11.311 33.108z" transform="translate(-642.777 -722.692)"/></g><g transform="translate(325.322 612.059)" class="B"><path d="M499.075 758.838c4.7 17.374 20.799 28.134 20.799 28.134s8.478-17.409 3.778-34.783-20.798-28.134-20.798-28.134-8.479 17.409-3.779 34.783z" transform="translate(-497.656 -724.055)"/></g><g transform="translate(301.416 629.498)" class="C"><path d="M505.982 755.104c12.896 12.555 14.472 31.854 14.472 31.854s-19.335-1.056-32.232-13.61-14.472-31.854-14.472-31.854 19.335 1.056 32.232 13.61z" transform="translate(-473.75 -741.494)"/></g><g transform="translate(777.055 620.794)" class="B"><path d="M956.864 753.135c-9.831 15.076-7.137 34.251-7.137 34.251s18.633-5.268 28.464-20.344 7.137-34.252 7.137-34.252-18.633 5.269-28.464 20.345z" transform="translate(-949.39 -732.79)"/></g><g transform="translate(766.442 610.696)" class="C"><path d="M964.249 755.8c-.777 17.982-14.125 32.009-14.125 32.009s-12.088-15.126-11.311-33.108 14.125-32.009 14.125-32.009 12.088 15.127 11.311 33.108z" transform="translate(-938.777 -722.692)"/></g><g class="C"><path d="M290.902 172.047c-1.121 17.963-14.735 31.732-14.735 31.732s-11.797-15.355-10.676-33.318 14.736-31.733 14.736-31.733 11.796 15.355 10.675 33.319z"/><use xlink:href="#B"/><use xlink:href="#B" x="-34" y="219"/><use xlink:href="#B" x="47" y="303"/><path d="M424.506 90.501c-4.592 17.403-20.623 28.263-20.623 28.263s-8.587-17.355-3.995-34.758 20.622-28.263 20.622-28.263 8.587 17.355 3.996 34.758zm144.835 13.57c-5.396 17.17-21.915 27.272-21.915 27.272s-7.77-17.736-2.373-34.906 21.915-27.273 21.915-27.273 7.77 17.736 2.373 34.907zm156.545 191.097c-9.776 15.112-28.389 20.449-28.389 20.449s-2.764-19.165 7.011-34.277 28.389-20.449 28.389-20.449 2.764 19.165-7.011 34.277z"/></g><defs ><path id="B" d="M148.986 58.485c15.225 9.599 20.778 28.149 20.778 28.149s-19.131 2.987-34.356-6.612-20.779-28.148-20.779-28.148 19.132-2.988 34.357 6.611z"/></defs></svg>